<?xml version="1.0" standalone="no"?>
<!DOCTYPE svg PUBLIC "-//W3C//DTD SVG 20010904//EN"
 "http://www.w3.org/TR/2001/REC-SVG-20010904/DTD/svg10.dtd">
<svg version="1.0" xmlns="http://www.w3.org/2000/svg"
 width="600.000000pt" height="600.000000pt" viewBox="0 0 600.000000 600.000000"
 preserveAspectRatio="xMidYMid meet">

<g transform="translate(0.000000,600.000000) scale(0.100000,-0.100000)"
fill="#000000" stroke="none">
<path d="M2778 4789 c-91 -10 -182 -41 -248 -86 -115 -78 -260 -253 -339 -410
-59 -119 -89 -227 -131 -473 -11 -69 -29 -143 -39 -165 -50 -109 -165 -574
-195 -790 -49 -356 -47 -334 -36 -496 25 -351 52 -464 145 -604 67 -101 163
-194 243 -234 34 -17 62 -35 62 -39 -1 -22 -30 -87 -41 -90 -32 -10 -129 -121
-129 -148 0 -26 35 -14 58 20 12 18 34 43 47 56 l25 24 -7 -78 c-6 -73 -5 -78
13 -74 14 2 20 13 22 38 1 19 5 50 8 69 l5 34 53 -52 c54 -54 66 -56 66 -11 0
31 -31 63 -82 84 -35 15 -37 18 -31 53 9 62 14 64 63 31 55 -37 107 -57 185
-68 33 -4 103 -18 155 -29 147 -32 339 -27 584 14 173 30 162 31 174 -16 9
-37 8 -41 -12 -49 -36 -13 -83 -67 -88 -100 -5 -34 -9 -36 72 35 l44 39 12
-48 c16 -62 31 -78 40 -42 3 14 4 39 2 56 -5 32 -6 32 59 -12 23 -15 53 -32
67 -38 23 -8 26 -7 26 14 0 12 -10 32 -22 43 -30 27 -116 73 -138 73 -17 0
-55 76 -42 84 4 2 39 14 77 26 138 45 223 96 310 184 204 208 267 442 245 903
-20 422 -76 712 -186 965 -21 46 -47 110 -60 143 -18 47 -23 54 -23 32 -1 -15
19 -80 44 -143 145 -369 189 -636 190 -1129 0 -300 0 -300 -28 -390 -40 -130
-85 -220 -154 -305 -74 -91 -134 -138 -244 -189 -219 -102 -618 -168 -869
-143 -175 17 -357 65 -399 104 -12 10 -21 16 -21 13 0 -4 -17 7 -37 23 -21 16
-64 44 -96 62 -85 48 -163 123 -227 220 -65 99 -89 152 -73 157 7 3 5 20 -7
51 -78 208 -64 842 25 1111 8 25 24 90 35 143 26 130 97 387 111 404 6 7 15
48 20 91 13 102 54 276 91 383 59 169 171 345 302 475 129 127 242 175 418
175 155 0 242 -30 408 -141 159 -107 299 -308 414 -595 40 -102 99 -322 89
-337 -3 -6 -1 -7 5 -3 18 11 15 36 -18 167 -85 337 -285 662 -484 788 -192
121 -330 159 -508 140z"/>
<path d="M2609 3917 c-82 -55 -79 -147 8 -191 53 -27 87 -21 121 20 38 46 44
76 23 116 -17 35 -73 78 -101 78 -9 0 -32 -10 -51 -23z m54 -49 c13 -20 -6
-48 -34 -48 -28 0 -43 35 -23 55 19 19 43 16 57 -7z"/>
<path d="M3054 3930 c-57 -23 -82 -107 -49 -169 17 -34 33 -41 86 -41 59 0 89
34 89 100 0 64 -12 88 -55 106 -39 16 -42 16 -71 4z m16 -65 c18 -21 5 -45
-25 -45 -20 0 -25 5 -25 23 0 39 26 50 50 22z"/>
<path d="M2808 3677 c-49 -48 -96 -145 -103 -208 -12 -105 55 -285 124 -337
29 -21 33 -21 60 -8 55 29 121 157 145 282 l14 77 -46 89 c-26 50 -58 101 -71
114 -35 36 -82 32 -123 -9z m116 -20 c17 -19 47 -65 67 -103 l36 -70 -23 -82
c-27 -94 -63 -169 -107 -227 -17 -22 -32 -42 -34 -44 -3 -5 -33 30 -67 79 -14
20 -38 84 -55 150 -28 109 -29 115 -13 140 9 14 28 47 42 74 30 60 81 116 105
116 10 0 32 -15 49 -33z"/>
<path d="M3313 3618 c2 -7 -3 -18 -11 -24 -24 -17 9 -68 60 -91 86 -41 115
-48 132 -34 9 8 16 19 16 27 0 13 -57 63 -124 108 -41 27 -81 35 -73 14z"/>
<path d="M2332 3553 c-41 -20 -94 -80 -90 -101 9 -45 116 -8 173 60 25 30 26
33 9 45 -24 17 -52 16 -92 -4z"/>
<path d="M3430 3396 c-8 -11 -3 -20 20 -40 37 -31 70 -34 70 -7 0 34 -70 71
-90 47z"/>
<path d="M2233 3359 c-51 -32 -39 -78 14 -58 26 9 47 45 39 65 -7 19 -15 18
-53 -7z"/>
<path d="M3465 3250 c-4 -6 1 -22 10 -36 35 -53 81 -39 49 15 -18 31 -47 41
-59 21z"/>
<path d="M2190 3215 c-15 -19 -6 -47 14 -39 17 6 29 32 20 45 -8 13 -20 11
-34 -6z"/>
</g>
</svg>
